<svg width="51" height="50" viewBox="0 0 51 50" fill="none" xmlns="http://www.w3.org/2000/svg">
<path d="M39.5937 9.04256C36.7323 7.73387 33.6934 6.78006 30.5215 6.24771C30.1222 6.93534 29.6786 7.86695 29.368 8.59894C25.9943 8.11094 22.6448 8.11094 19.3176 8.59894C19.0071 7.86695 18.5412 6.93534 18.1641 6.24771C14.9701 6.78006 11.9312 7.73387 9.08976 9.04256C3.34478 17.5158 1.79208 25.7895 2.56843 33.9522C6.38362 36.7249 10.0658 38.4108 13.6836 39.5199C14.5708 38.322 15.3694 37.0354 16.057 35.6825C14.7483 35.1944 13.5061 34.5955 12.3083 33.8857C12.6189 33.664 12.9294 33.42 13.2178 33.176C20.4489 36.481 28.2812 36.481 35.4235 33.176C35.7341 33.42 36.0225 33.664 36.333 33.8857C35.1352 34.5955 33.8931 35.1944 32.5843 35.6825C33.272 37.0354 34.0705 38.322 34.9577 39.5199C38.5733 38.4108 42.2776 36.7249 46.0728 33.9522C47.0266 24.503 44.5623 16.296 39.5937 9.04256ZM17.0551 28.9171C14.8813 28.9171 13.1068 26.943 13.1068 24.5252C13.1068 22.1075 14.837 20.1332 17.0551 20.1332C19.2511 20.1332 21.0477 22.1075 21.0033 24.5252C21.0033 26.943 19.2511 28.9171 17.0551 28.9171ZM31.6306 28.9171C29.4567 28.9171 27.68 26.943 27.68 24.5252C27.68 22.1075 29.4124 20.1332 31.6306 20.1332C33.8265 20.1332 35.6232 22.1075 35.5788 24.5252C35.5788 26.943 33.8487 28.9171 31.6306 28.9171Z" stroke="#4617FF" stroke-width="2.07951" stroke-linejoin="round"/>
</svg>
