<svg id="visual" viewBox="0 0 960 540" width="960" height="540" xmlns="http://www.w3.org/2000/svg" xmlns:xlink="http://www.w3.org/1999/xlink" version="1.1"><rect x="0" y="0" width="960" height="540" fill="#ffffff"></rect><path d="M535 540L540.8 517.5C546.7 495 558.3 450 568.8 405C579.3 360 588.7 315 549.8 270C511 225 424 180 384.3 135C344.7 90 352.3 45 356.2 22.5L360 0L960 0L960 22.5C960 45 960 90 960 135C960 180 960 225 960 270C960 315 960 360 960 405C960 450 960 495 960 517.5L960 540Z" fill="#e3dfff"></path><path d="M682 540L698.8 517.5C715.7 495 749.3 450 762.8 405C776.3 360 769.7 315 735.8 270C702 225 641 180 644.5 135C648 90 716 45 750 22.5L784 0L960 0L960 22.5C960 45 960 90 960 135C960 180 960 225 960 270C960 315 960 360 960 405C960 450 960 495 960 517.5L960 540Z" fill="#1c0046"></path></svg>