<svg width="50" height="51" viewBox="0 0 50 51" fill="none" xmlns="http://www.w3.org/2000/svg">
<path d="M45.7584 7.51987V42.9939C45.7584 43.8049 45.4362 44.5828 44.8627 45.1563C44.2892 45.7298 43.5113 46.052 42.7003 46.052H7.22626C6.4152 46.052 5.63736 45.7298 5.06385 45.1563C4.49034 44.5828 4.16815 43.8049 4.16815 42.9939V7.51987C4.16815 6.70881 4.49034 5.93097 5.06385 5.35746C5.63736 4.78395 6.4152 4.46176 7.22626 4.46176H42.7003C43.5113 4.46176 44.2892 4.78395 44.8627 5.35746C45.4362 5.93097 45.7584 6.70881 45.7584 7.51987V7.51987ZM16.4006 20.3639H10.2844V39.9358H16.4006V20.3639ZM16.951 13.6361C16.9542 13.1734 16.8663 12.7147 16.6922 12.286C16.5182 11.8574 16.2614 11.4672 15.9365 11.1378C15.6116 10.8084 15.2251 10.5462 14.7989 10.3662C14.3727 10.1862 13.9152 10.0919 13.4526 10.0887H13.3425C12.4016 10.0887 11.4993 10.4624 10.8341 11.1277C10.1688 11.7929 9.79506 12.6952 9.79506 13.6361C9.79506 14.5769 10.1688 15.4792 10.8341 16.1445C11.4993 16.8097 12.4016 17.1835 13.3425 17.1835V17.1835C13.8051 17.1949 14.2655 17.115 14.6973 16.9484C15.1291 16.7818 15.5238 16.5317 15.8589 16.2125C16.194 15.8933 16.463 15.5112 16.6504 15.088C16.8378 14.6648 16.9399 14.2088 16.951 13.7462V13.6361ZM39.6422 28.0459C39.6422 22.1621 35.899 19.8746 32.1804 19.8746C30.9628 19.8136 29.7506 20.073 28.6645 20.6267C27.5784 21.1805 26.6565 22.0093 25.9908 23.0306H25.8195V20.3639H20.0703V39.9358H26.1865V29.526C26.0981 28.4598 26.4339 27.4019 27.121 26.5819C27.8082 25.762 28.7911 25.2462 29.8562 25.1468H30.0886C32.0336 25.1468 33.477 26.37 33.477 29.4526V39.9358H39.5932L39.6422 28.0459Z" stroke="#4617FF" stroke-width="2.07951" stroke-linejoin="round"/>
</svg>
