<svg width="51" height="51" viewBox="0 0 51 51" fill="none" xmlns="http://www.w3.org/2000/svg">
<path d="M46.639 13.0359C45.1096 13.7136 43.4665 14.1715 41.7393 14.3785C43.5013 13.3234 44.8531 11.6493 45.4905 9.6564C43.842 10.6345 42.0158 11.3452 40.0724 11.7262C38.5155 10.0704 36.2992 9.03363 33.8447 9.03363C29.1336 9.03363 25.3127 12.8545 25.3127 17.5693C25.3127 18.236 25.3896 18.8844 25.5325 19.5109C18.4384 19.1537 12.1539 15.7559 7.94469 10.5942C7.21202 11.8581 6.79073 13.3234 6.79073 14.884C6.79073 17.844 8.2982 20.4578 10.586 21.9873C9.18657 21.9415 7.87142 21.5587 6.72113 20.9194V21.0293C6.72113 25.1634 9.66098 28.6125 13.5661 29.3965C12.8481 29.5906 12.0953 29.6932 11.3187 29.6932C10.7691 29.6932 10.2325 29.6419 9.71226 29.543C10.7985 32.9316 13.9489 35.4007 17.6838 35.4667C14.7622 37.7563 11.0824 39.1209 7.08563 39.1209C6.39692 39.1209 5.71736 39.0806 5.0488 39.0018C8.82573 41.4251 13.3097 42.8355 18.127 42.8355C33.8246 42.8355 42.406 29.8342 42.406 18.5584C42.406 18.192 42.3968 17.822 42.3803 17.4557C44.0472 16.2505 45.4942 14.7503 46.6353 13.0414L46.639 13.0359Z" stroke="#4200FF" stroke-width="2.07951" stroke-linejoin="round"/>
</svg>
