<svg width="32" height="32" viewBox="0 0 32 32" fill="none" xmlns="http://www.w3.org/2000/svg">
<path d="M27.1784 9.36916C23.524 3.20264 15.5334 1.15922 9.36804 4.81434C3.32781 8.39438 1.24476 16.1363 4.59766 22.2478L3.53799 25.9905C3.43165 26.3559 3.43165 26.7413 3.53799 27.1067C3.84576 28.1603 4.95297 28.7659 5.99762 28.4606L9.74711 27.3982C11.6938 28.4656 13.8444 28.9999 15.995 28.9999C18.287 28.9999 20.579 28.3943 22.6233 27.1817C25.6096 25.4111 27.7289 22.5831 28.5884 19.2183C29.4492 15.8535 28.9475 12.3561 27.1772 9.36791L27.1784 9.36916ZM26.6505 18.7228C25.9224 21.5696 24.1308 23.9621 21.6036 25.4599C18.1456 27.5096 13.8482 27.5096 10.3889 25.4599C10.2325 25.3673 10.0561 25.3198 9.87848 25.3198C9.78715 25.3198 9.69582 25.3323 9.60574 25.3573L5.46591 26.5298L6.63817 22.3892C6.71324 22.1251 6.67571 21.8424 6.53558 21.6059C3.44416 16.3891 5.1719 9.62818 10.3889 6.53616C15.6047 3.44414 22.3643 5.17222 25.4557 10.3902C26.9533 12.9179 27.3774 15.8773 26.6492 18.7228H26.6505Z" fill="white"/>
<path d="M22.5695 17.8669L20.0135 16.4016C19.388 16.05 18.616 16.06 17.9968 16.4279L16.5067 17.3201C15.7448 16.8809 15.113 16.2489 14.6739 15.4869L15.5672 13.9941C15.9337 13.3771 15.9425 12.6051 15.5872 11.9707L14.1259 9.42296C13.7956 8.83359 13.1701 8.46946 12.5045 8.47696C10.0299 8.47696 8.00936 10.4903 8.0006 12.9655V13.0218C8.00811 15.9599 9.15911 18.719 11.2409 20.7912C13.3165 22.8572 16.0701 23.9934 18.9964 23.9934C19.0076 23.9934 19.0189 23.9934 19.0289 23.9934C21.4923 23.9759 23.504 21.9562 23.5128 19.4961C23.5178 18.8204 23.1562 18.1972 22.567 17.8669H22.5695ZM19.0189 21.9913H18.9989C16.6043 21.9913 14.3523 21.0615 12.6546 19.3722C10.9519 17.6767 10.0098 15.4206 10.0036 13.0155V12.973C10.0086 11.6265 11.0845 10.5266 12.4269 10.4803L13.8482 12.958L13.8494 12.968L12.6734 14.9325C12.5058 15.2128 12.4845 15.5582 12.6196 15.8573C13.3227 17.4227 14.5725 18.6715 16.1376 19.376C16.4367 19.5099 16.782 19.4899 17.0622 19.3222L19.0276 18.1434L21.5135 19.5687C21.4648 20.9026 20.3638 21.9812 19.0201 21.9925L19.0189 21.9913Z" fill="white"/>
</svg>
