<svg width="51" height="50" viewBox="0 0 51 50" fill="none" xmlns="http://www.w3.org/2000/svg">
<path fill-rule="evenodd" clip-rule="evenodd" d="M43.543 9.2838C45.5126 9.81104 47.0606 11.3589 47.5877 13.3285C48.5405 16.8949 48.5443 24.3402 48.5443 24.3402C48.5443 24.3402 48.5443 31.7856 47.5877 35.352C47.0606 37.3216 45.5126 38.8694 43.543 39.3966C39.9768 40.3532 25.6696 40.3532 25.6696 40.3532C25.6696 40.3532 11.3627 40.3532 7.79633 39.3966C5.82673 38.8694 4.2789 37.3216 3.75167 35.352C2.79511 31.7856 2.7951 24.3402 2.7951 24.3402C2.7951 24.3402 2.79511 16.8949 3.75167 13.3285C4.2789 11.3589 5.82673 9.81104 7.79633 9.2838C11.3627 8.32724 25.6696 8.32724 25.6696 8.32724C25.6696 8.32724 39.9768 8.32724 43.543 9.2838ZM32.9759 24.3409L21.0904 31.2024V17.4792L32.9759 24.3409Z" stroke="#4200FF" stroke-width="2.07951" stroke-linejoin="round"/>
</svg>
