<svg id="visual" viewBox="0 0 900 600" width="900" height="600" xmlns="http://www.w3.org/2000/svg" xmlns:xlink="http://www.w3.org/1999/xlink" version="1.1"><rect width="900" height="600" fill="#ffffff"></rect><g><g transform="translate(177 438)"><path d="M0 -54.2L38.4 -38.4L54.2 0L38.4 38.4L0 54.2L-38.4 38.4L-54.2 0L-38.4 -38.4Z" fill="none" stroke="#715DF2" stroke-width="2"></path></g><g transform="translate(412 233)"><path d="M0 -25L17.7 -17.7L25 0L17.7 17.7L0 25L-17.7 17.7L-25 0L-17.7 -17.7Z" fill="none" stroke="#715DF2" stroke-width="2"></path></g><g transform="translate(536 480)"><path d="M0 -42L29.7 -29.7L42 0L29.7 29.7L0 42L-29.7 29.7L-42 0L-29.7 -29.7Z" fill="none" stroke="#715DF2" stroke-width="2"></path></g><g transform="translate(706 300)"><path d="M0 -7L4.9 -4.9L7 0L4.9 4.9L0 7L-4.9 4.9L-7 0L-4.9 -4.9Z" stroke="#715DF2" fill="none" stroke-width="2"></path></g><g transform="translate(614 40)"><path d="M0 -8L5.7 -5.7L8 0L5.7 5.7L0 8L-5.7 5.7L-8 0L-5.7 -5.7Z" stroke="#715DF2" fill="none" stroke-width="2"></path></g><g transform="translate(143 174)"><path d="M0 -42L29.7 -29.7L42 0L29.7 29.7L0 42L-29.7 29.7L-42 0L-29.7 -29.7Z" stroke="#715DF2" fill="none" stroke-width="2"></path></g><g transform="translate(796 114)"><path d="M0 -46L32.5 -32.5L46 0L32.5 32.5L0 46L-32.5 32.5L-46 0L-32.5 -32.5Z" stroke="#715DF2" fill="none" stroke-width="2"></path></g><g transform="translate(700 425)"><path d="M0 -38L26.9 -26.9L38 0L26.9 26.9L0 38L-26.9 26.9L-38 0L-26.9 -26.9Z" stroke="#715DF2" fill="none" stroke-width="2"></path></g><g transform="translate(833 375)"><path d="M0 -21L14.8 -14.8L21 0L14.8 14.8L0 21L-14.8 14.8L-21 0L-14.8 -14.8Z" stroke="#715DF2" fill="none" stroke-width="2"></path></g><g transform="translate(550 176)"><path d="M0 -46L32.5 -32.5L46 0L32.5 32.5L0 46L-32.5 32.5L-46 0L-32.5 -32.5Z" stroke="#715DF2" fill="none" stroke-width="2"></path></g><g transform="translate(869 577)"><path d="M0 -28L19.8 -19.8L28 0L19.8 19.8L0 28L-19.8 19.8L-28 0L-19.8 -19.8Z" stroke="#715DF2" fill="none" stroke-width="2"></path></g><g transform="translate(275 356)"><path d="M0 -25L17.7 -17.7L25 0L17.7 17.7L0 25L-17.7 17.7L-25 0L-17.7 -17.7Z" stroke="#715DF2" fill="none" stroke-width="2"></path></g><g transform="translate(350 496)"><path d="M0 -9L6.4 -6.4L9 0L6.4 6.4L0 9L-6.4 6.4L-9 0L-6.4 -6.4Z" stroke="#715DF2" fill="none" stroke-width="2"></path></g><g transform="translate(400 64)"><path d="M0 -18L12.7 -12.7L18 0L12.7 12.7L0 18L-12.7 12.7L-18 0L-12.7 -12.7Z" stroke="#715DF2" fill="none" stroke-width="2"></path></g><g transform="translate(89 297)"><path d="M0 -39L27.6 -27.6L39 0L27.6 27.6L0 39L-27.6 27.6L-39 0L-27.6 -27.6Z" stroke="#715DF2" fill="none" stroke-width="2"></path></g><g transform="translate(665 566)"><path d="M0 -40L28.3 -28.3L40 0L28.3 28.3L0 40L-28.3 28.3L-40 0L-28.3 -28.3Z" stroke="#715DF2" fill="none" stroke-width="2"></path></g><g transform="translate(9 518)"><path d="M0 -22L15.6 -15.6L22 0L15.6 15.6L0 22L-15.6 15.6L-22 0L-15.6 -15.6Z" stroke="#715DF2" fill="none" stroke-width="2"></path></g><g transform="translate(78 44)"><path d="M0 -42L29.7 -29.7L42 0L29.7 29.7L0 42L-29.7 29.7L-42 0L-29.7 -29.7Z" stroke="#715DF2" fill="none" stroke-width="2"></path></g><g transform="translate(897 40)"><path d="M0 -14L9.9 -9.9L14 0L9.9 9.9L0 14L-9.9 9.9L-14 0L-9.9 -9.9Z" stroke="#715DF2" fill="none" stroke-width="2"></path></g><g transform="translate(679 166)"><path d="M0 -41L29 -29L41 0L29 29L0 41L-29 29L-41 0L-29 -29Z" stroke="#715DF2" fill="none" stroke-width="2"></path></g></g></svg>