<svg width="51" height="51" viewBox="0 0 51 51" fill="none" xmlns="http://www.w3.org/2000/svg">
<path fill-rule="evenodd" clip-rule="evenodd" d="M25.6697 5.04889C14.1804 5.04889 4.87463 14.3547 4.87463 25.844C4.87463 35.0458 10.8272 42.818 19.0933 45.5734C20.133 45.7553 20.523 45.1315 20.523 44.5856C20.523 44.0917 20.497 42.4541 20.497 40.7125C15.2722 41.6743 13.9205 39.4388 13.5046 38.2691C13.2707 37.6712 12.2569 35.8256 11.3731 35.3318C10.6453 34.9419 9.60552 33.9801 11.3471 33.9541C12.9847 33.9281 14.1545 35.4617 14.5444 36.0856C16.4159 39.2308 19.4052 38.3471 20.6009 37.8012C20.7829 36.4495 21.3288 35.5397 21.9266 35.0198C17.2997 34.5 12.4648 32.7064 12.4648 24.7523C12.4648 22.4908 13.2707 20.6192 14.5963 19.1636C14.3884 18.6437 13.6606 16.5122 14.8043 13.6529C14.8043 13.6529 16.5459 13.107 20.523 15.7844C22.1866 15.3165 23.9541 15.0825 25.7217 15.0825C27.4893 15.0825 29.2569 15.3165 30.9205 15.7844C34.8976 13.081 36.6392 13.6529 36.6392 13.6529C37.7829 16.5122 37.0551 18.6437 36.8471 19.1636C38.1728 20.6192 38.9786 22.4648 38.9786 24.7523C38.9786 32.7324 34.1178 34.5 29.4908 35.0198C30.2447 35.6697 30.8945 36.9174 30.8945 38.8669C30.8945 41.6483 30.8685 43.8838 30.8685 44.5856C30.8685 45.1315 31.2584 45.7813 32.2982 45.5734C36.4264 44.1797 40.0136 41.5266 42.5549 37.9874C45.0963 34.4481 46.4637 30.2011 46.4648 25.844C46.4648 14.3547 37.159 5.04889 25.6697 5.04889Z" stroke="#4617FF" stroke-width="2.07951" stroke-linejoin="round"/>
</svg>
