<svg id="visual" viewBox="0 0 900 450" width="900" height="450" xmlns="http://www.w3.org/2000/svg" xmlns:xlink="http://www.w3.org/1999/xlink" version="1.1"><rect width="900" height="450" fill="#ffffff"></rect><g><g transform="translate(374 48)"><path d="M0 -94.5L73.9 -58.9L92.1 21L41 85.1L-41 85.1L-92.1 21L-73.9 -58.9Z" fill="none" stroke="#6600FF" stroke-width="2"></path></g><g transform="translate(833 351)"><path d="M0 -41L32.1 -25.6L40 9.1L17.8 36.9L-17.8 36.9L-40 9.1L-32.1 -25.6Z" fill="none" stroke="#6600FF" stroke-width="2"></path></g><g transform="translate(88 138)"><path d="M0 -79L61.8 -49.3L77 17.6L34.3 71.2L-34.3 71.2L-77 17.6L-61.8 -49.3Z" stroke="#6600FF" fill="none" stroke-width="2"></path></g><g transform="translate(263 382)"><path d="M0 -44L34.4 -27.4L42.9 9.8L19.1 39.6L-19.1 39.6L-42.9 9.8L-34.4 -27.4Z" stroke="#6600FF" fill="none" stroke-width="2"></path></g><g transform="translate(567 230)"><path d="M0 -72L56.3 -44.9L70.2 16L31.2 64.9L-31.2 64.9L-70.2 16L-56.3 -44.9Z" stroke="#6600FF" fill="none" stroke-width="2"></path></g><g transform="translate(75 447)"><path d="M0 -54L42.2 -33.7L52.6 12L23.4 48.7L-23.4 48.7L-52.6 12L-42.2 -33.7Z" stroke="#6600FF" fill="none" stroke-width="2"></path></g></g></svg>