<svg width="22" height="22" viewBox="0 0 22 22" fill="none" xmlns="http://www.w3.org/2000/svg">
<path fill-rule="evenodd" clip-rule="evenodd" d="M0.292893 10.2929C0.683417 9.90237 1.31658 9.90237 1.70711 10.2929L11 19.5858L20.2929 10.2929C20.6834 9.90237 21.3166 9.90237 21.7071 10.2929C22.0976 10.6834 22.0976 11.3166 21.7071 11.7071L11.7071 21.7071C11.3166 22.0976 10.6834 22.0976 10.2929 21.7071L0.292893 11.7071C-0.0976311 11.3166 -0.0976311 10.6834 0.292893 10.2929Z" fill="#5600FF"/>
<path fill-rule="evenodd" clip-rule="evenodd" d="M0.292893 0.292893C0.683417 -0.0976311 1.31658 -0.0976311 1.70711 0.292893L11 9.58579L20.2929 0.292893C20.6834 -0.0976311 21.3166 -0.0976311 21.7071 0.292893C22.0976 0.683417 22.0976 1.31658 21.7071 1.70711L11.7071 11.7071C11.3166 12.0976 10.6834 12.0976 10.2929 11.7071L0.292893 1.70711C-0.0976311 1.31658 -0.0976311 0.683417 0.292893 0.292893Z" fill="#5600FF"/>
</svg>
